HIERARCHY
ROOT Hips
{
    OFFSET 0.000000 0.000000 0.000000
    CHANNELS 6 Xposition Yposition Zposition Zrotation Yrotation Xrotation
    JOINT Chest
    {
        OFFSET 0.000000 1.634758 -0.000000
        CHANNELS 3 Zrotation Yrotation Xrotation
        JOINT Chest2
        {
            OFFSET 0.000000 2.197341 0.000000
            CHANNELS 3 Zrotation Yrotation Xrotation
            JOINT Neck
            {
                OFFSET 0.000000 0.961544 0.000000
                CHANNELS 3 Zrotation Yrotation Xrotation
                JOINT Head
                {
                    OFFSET 0.000000 0.632542 -0.032565
                    CHANNELS 3 Zrotation Yrotation Xrotation
                    End Site
                    {
                        OFFSET -0.000001 0.439502 2.922845
                    }
                }
            }
            JOINT LeftCollar
            {
                OFFSET 0.167536 0.778237 -0.168280
                CHANNELS 3 Zrotation Yrotation Xrotation
                JOINT LeftShoulder
                {
                    OFFSET 0.831514 -0.002900 0.006458
                    CHANNELS 3 Zrotation Yrotation Xrotation
                    JOINT LeftElbow
                    {
                        OFFSET 2.272872 -0.026639 0.059314
                        CHANNELS 3 Zrotation Yrotation Xrotation
                        JOINT LeftWrist
                        {
                            OFFSET 2.081982 -0.024402 0.054333
                            CHANNELS 3 Zrotation Yrotation Xrotation
                            JOINT LeftHandThumb1
                            {
                                OFFSET 0.218903 -0.128645 0.283837
                                CHANNELS 3 Zrotation Yrotation Xrotation
                                JOINT LeftHandThumb2
                                {
                                    OFFSET 0.137157 -0.025101 0.077902
                                    CHANNELS 3 Zrotation Yrotation Xrotation
                                    JOINT LeftHandThumb3
                                    {
                                        OFFSET 0.167144 -0.063684 0.039325
                                        CHANNELS 3 Zrotation Yrotation Xrotation
                                        End Site
                                        {
                                            OFFSET 0.237999 -0.105215 0.064207
                                        }
                                    }
                                }
                            }
                            JOINT LeftHandFore1
                            {
                                OFFSET 0.767340 -0.016076 0.196678
                                CHANNELS 3 Zrotation Yrotation Xrotation
                                JOINT LeftHandFore2
                                {
                                    OFFSET 0.188823 -0.106331 -0.005918
                                    CHANNELS 3 Zrotation Yrotation Xrotation
                                    JOINT LeftHandFore3
                                    {
                                        OFFSET 0.091640 -0.091393 -0.003493
                                        CHANNELS 3 Zrotation Yrotation Xrotation
                                        End Site
                                        {
                                            OFFSET 0.139997 -0.132967 -0.009355
                                        }
                                    }
                                }
                            }
                            JOINT LeftHandMiddle1
                            {
                                OFFSET 0.709887 -0.008320 0.018526
                                CHANNELS 3 Zrotation Yrotation Xrotation
                                JOINT LeftHandMiddle2
                                {
                                    OFFSET 0.193358 -0.150584 0.000918
                                    CHANNELS 3 Zrotation Yrotation Xrotation
                                    JOINT LeftHandMiddle3
                                    {
                                        OFFSET 0.085226 -0.118820 0.001223
                                        CHANNELS 3 Zrotation Yrotation Xrotation
                                        End Site
                                        {
                                            OFFSET 0.133510 -0.194420 0.002523
                                        }
                                    }
                                }
                            }
                            JOINT LeftHandRing1
                            {
                                OFFSET 0.743817 -0.005823 -0.153668
                                CHANNELS 3 Zrotation Yrotation Xrotation
                                JOINT LeftHandRing2
                                {
                                    OFFSET 0.288025 -0.204250 0.007516
                                    CHANNELS 3 Zrotation Yrotation Xrotation
                                    JOINT LeftHandRing3
                                    {
                                        OFFSET 0.072555 -0.115317 0.006566
                                        CHANNELS 3 Zrotation Yrotation Xrotation
                                        End Site
                                        {
                                            OFFSET 0.058042 -0.104985 0.005391
                                        }
                                    }
                                }
                            }
                            JOINT LeftHandLittle1
                            {
                                OFFSET 0.689408 -0.053302 -0.308304
                                CHANNELS 3 Zrotation Yrotation Xrotation
                                JOINT LeftHandLittle2
                                {
                                    OFFSET 0.176579 -0.081319 0.016157
                                    CHANNELS 3 Zrotation Yrotation Xrotation
                                    JOINT LeftHandLittle3
                                    {
                                        OFFSET 0.084605 -0.085461 0.005901
                                        CHANNELS 3 Zrotation Yrotation Xrotation
                                        End Site
                                        {
                                            OFFSET 0.151722 -0.113546 0.019401
                                        }
                                    }
                                }
                            }
                        }
                    }
                }
            }
            JOINT RightCollar
            {
                OFFSET -0.167536 0.778237 -0.168280
                CHANNELS 3 Zrotation Yrotation Xrotation
                JOINT RightShoulder
                {
                    OFFSET -0.831514 -0.002900 0.006457
                    CHANNELS 3 Zrotation Yrotation Xrotation
                    JOINT RightElbow
                    {
                        OFFSET -2.272872 -0.026639 0.059313
                        CHANNELS 3 Zrotation Yrotation Xrotation
                        JOINT RightWrist
                        {
                            OFFSET -2.081982 -0.024402 0.054331
                            CHANNELS 3 Zrotation Yrotation Xrotation
                            JOINT RightHandThumb1
                            {
                                OFFSET -0.218911 -0.128571 0.283837
                                CHANNELS 3 Zrotation Yrotation Xrotation
                                JOINT RightHandThumb2
                                {
                                    OFFSET -0.137157 -0.025101 0.077902
                                    CHANNELS 3 Zrotation Yrotation Xrotation
                                    JOINT RightHandThumb3
                                    {
                                        OFFSET -0.144457 -0.112507 -0.003714
                                        CHANNELS 3 Zrotation Yrotation Xrotation
                                        End Site
                                        {
                                            OFFSET -0.071707 -0.241992 -0.090191
                                        }
                                    }
                                }
                            }
                            JOINT RightHandFore1
                            {
                                OFFSET -0.767344 -0.015991 0.196679
                                CHANNELS 3 Zrotation Yrotation Xrotation
                                JOINT RightHandFore2
                                {
                                    OFFSET -0.198556 -0.086768 -0.006610
                                    CHANNELS 3 Zrotation Yrotation Xrotation
                                    JOINT RightHandFore3
                                    {
                                        OFFSET -0.121831 -0.043685 -0.003294
                                        CHANNELS 3 Zrotation Yrotation Xrotation
                                        End Site
                                        {
                                            OFFSET -0.183422 -0.061016 -0.000547
                                        }
                                    }
                                }
                            }
                            JOINT RightHandMiddle1
                            {
                                OFFSET -0.709887 -0.008302 0.018525
                                CHANNELS 3 Zrotation Yrotation Xrotation
                                JOINT RightHandMiddle2
                                {
                                    OFFSET -0.224361 -0.098173 -0.009265
                                    CHANNELS 3 Zrotation Yrotation Xrotation
                                    JOINT RightHandMiddle3
                                    {
                                        OFFSET -0.145893 -0.009293 -0.003631
                                        CHANNELS 3 Zrotation Yrotation Xrotation
                                        End Site
                                        {
                                            OFFSET -0.234941 -0.019759 -0.006528
                                        }
                                    }
                                }
                            }
                            JOINT RightHandRing1
                            {
                                OFFSET -0.743819 -0.005785 -0.153669
                                CHANNELS 3 Zrotation Yrotation Xrotation
                                JOINT RightHandRing2
                                {
                                    OFFSET -0.323668 -0.141318 -0.001311
                                    CHANNELS 3 Zrotation Yrotation Xrotation
                                    JOINT RightHandRing3
                                    {
                                        OFFSET -0.131880 -0.034494 -0.004774
                                        CHANNELS 3 Zrotation Yrotation Xrotation
                                        End Site
                                        {
                                            OFFSET -0.114198 -0.036890 -0.004271
                                        }
                                    }
                                }
                            }
                            JOINT RightHandLittle1
                            {
                                OFFSET -0.689403 -0.053298 -0.308303
                                CHANNELS 3 Zrotation Yrotation Xrotation
                                JOINT RightHandLittle2
                                {
                                    OFFSET -0.190894 -0.032262 -0.023958
                                    CHANNELS 3 Zrotation Yrotation Xrotation
                                    JOINT RightHandLittle3
                                    {
                                        OFFSET -0.118328 -0.016597 -0.014784
                                        CHANNELS 3 Zrotation Yrotation Xrotation
                                        End Site
                                        {
                                            OFFSET -0.188035 0.002683 -0.030404
                                        }
                                    }
                                }
                            }
                        }
                    }
                }
            }
        }
    }
    JOINT LeftHip
    {
        OFFSET 0.685143 0.673822 -0.044491
        CHANNELS 3 Zrotation Yrotation Xrotation
        JOINT LeftKnee
        {
            OFFSET 0.085364 -3.750208 0.017676
            CHANNELS 3 Zrotation Yrotation Xrotation
            JOINT LeftAnkle
            {
                OFFSET 0.094583 -4.155206 0.019585
                CHANNELS 3 Zrotation Yrotation Xrotation
                JOINT LeftToe
                {
                    OFFSET -0.000000 -0.395925 0.621478
                    CHANNELS 3 Zrotation Yrotation Xrotation
                    End Site
                    {
                        OFFSET -0.000000 -0.077878 0.321152
                    }
                }
            }
        }
    }
    JOINT RightHip
    {
        OFFSET -0.685143 0.673822 -0.044492
        CHANNELS 3 Zrotation Yrotation Xrotation
        JOINT RightKnee
        {
            OFFSET -0.085364 -3.750208 0.017677
            CHANNELS 3 Zrotation Yrotation Xrotation
            JOINT RightAnkle
            {
                OFFSET -0.094583 -4.155206 0.019585
                CHANNELS 3 Zrotation Yrotation Xrotation
                JOINT RightToe
                {
                    OFFSET -0.000000 -0.395925 0.621478
                    CHANNELS 3 Zrotation Yrotation Xrotation
                    End Site
                    {
                        OFFSET -0.000000 -0.077878 0.321152
                    }
                }
            }
        }
    }
}
MOTION
Frames: 7
Frame Time: 0.033333
-0.451529 8.513983 -0.199704 0.000000 -90.000000 -3.000010 -0.005446 -0.001915 -5.155454 -0.005668 0.000728 -3.645262 -0.000852 -0.015818 6.272242 0.001447 -0.028000 14.052992 -10.715314 -4.698424 -0.016210 -42.249077 6.975145 40.980858 7.746323 -85.433777 -8.394723 9.077173 0.018009 -4.769874 -0.000002 -0.000004 -0.000002 -9.519005 15.960412 5.064588 6.302037 40.896477 25.542917 -66.916267 -5.248113 -3.545099 -96.102959 -1.339863 -4.811244 -114.498741 -1.894422 -3.233899 -58.835495 -2.372273 0.341012 -83.068390 -1.182969 -0.316097 -131.202560 -1.705668 0.070937 -62.338516 3.564475 5.550342 -83.006836 1.770800 2.165320 -114.899796 2.969349 5.740293 -67.659126 13.585479 12.018394 -69.766380 6.148365 12.469694 -128.939514 13.887219 9.284068 10.653062 4.857958 -0.017195 41.901272 -6.207308 40.622631 -7.105260 85.059059 -7.751581 -8.726525 -0.219173 -5.638313 -0.000009 0.000002 0.000000 -5.787632 -4.337616 -1.623939 -1.881191 -10.212156 7.331027 72.691650 5.788043 -2.974324 115.731766 -4.983464 -3.313048 114.644577 -3.749642 -4.764037 73.161255 4.547554 0.308552 119.501945 -1.009703 -4.275799 131.195618 -0.754392 -4.507921 74.255646 -2.479504 6.036859 114.390961 -2.113137 -2.936616 115.052773 0.467685 -5.635869 85.499245 -3.709406 12.320512 90.467331 13.872890 -14.835362 127.892288 17.262518 -12.111722 -4.532666 0.459019 6.708749 0.016043 0.203909 8.995048 2.728773 3.733897 -10.647008 -0.008772 -0.044175 -2.400866 -3.498718 0.187074 3.667631 -0.018781 -0.220562 9.736512 -0.591941 0.101486 -6.630738 -0.058707 -0.419225 -5.659340
-0.451528 8.513963 -0.199704 0.000000 -90.000000 -3.000010 -0.005446 -0.001915 -5.155436 -0.005668 0.000728 -3.645252 -0.000856 -0.015817 6.272211 0.001447 -0.028000 14.052927 -10.715202 -4.698450 -0.016209 -42.248695 6.975012 40.981056 7.747586 -85.434547 -8.396131 9.078104 0.017080 -4.770055 0.000007 -0.000010 0.000002 -9.519003 15.960412 5.064585 6.302036 40.896481 25.542910 -66.916275 -5.248119 -3.545096 -96.102959 -1.339860 -4.811243 -114.498741 -1.894418 -3.233894 -58.835487 -2.372284 0.341014 -83.068390 -1.182969 -0.316098 -131.202560 -1.705668 0.070936 -62.338516 3.564471 5.550351 -83.006836 1.770800 2.165319 -114.899796 2.969349 5.740297 -67.659134 13.585469 12.018406 -69.766380 6.148373 12.469689 -128.939514 13.887221 9.284068 10.652787 4.858024 -0.017193 41.900204 -6.207126 40.622726 -7.109555 85.061729 -7.755751 -8.728020 -0.220272 -5.638158 -0.000003 0.000002 0.000003 -5.787636 -4.337617 -1.623939 -1.881196 -10.212153 7.331016 72.691643 5.788069 -2.974329 115.731766 -4.983462 -3.313050 114.644592 -3.749641 -4.764033 73.161255 4.547569 0.308548 119.501945 -1.009704 -4.275802 131.195602 -0.754395 -4.507920 74.255630 -2.479487 6.036857 114.390953 -2.113135 -2.936614 115.052773 0.467685 -5.635873 85.499222 -3.709380 12.320512 90.467323 13.872890 -14.835365 127.892288 17.262512 -12.111720 -4.532768 0.458715 6.712883 0.016021 0.203767 8.988746 2.729097 3.734983 -10.644818 -0.008774 -0.044191 -2.402536 -3.498816 0.186887 3.661732 -0.018825 -0.220816 9.747856 -0.591562 0.103090 -6.629069 -0.058725 -0.419777 -5.667304
-0.451526 8.513904 -0.199704 0.000000 -90.000000 -3.000010 -0.005446 -0.001915 -5.155385 -0.005668 0.000728 -3.645208 -0.000869 -0.015817 6.272105 0.001447 -0.027999 14.052732 -10.714922 -4.698520 -0.016207 -42.247540 6.974615 40.981613 7.751927 -85.436836 -8.400316 9.080871 0.014305 -4.770610 -0.000003 -0.000014 0.000003 -9.519000 15.960410 5.064585 6.302035 40.896484 25.542917 -66.916267 -5.248127 -3.545100 -96.102959 -1.339861 -4.811244 -114.498741 -1.894415 -3.233897 -58.835495 -2.372287 0.341012 -83.068390 -1.182967 -0.316102 -131.202560 -1.705670 0.070936 -62.338509 3.564458 5.550341 -83.006836 1.770802 2.165314 -114.899780 2.969352 5.740294 -67.659126 13.585467 12.018404 -69.766380 6.148368 12.469686 -128.939514 13.887220 9.284061 10.651804 4.858265 -0.017191 41.897072 -6.206604 40.623085 -7.122146 85.069679 -7.768408 -8.732425 -0.223537 -5.637724 0.000002 -0.000002 -0.000002 -5.787638 -4.337619 -1.623937 -1.881193 -10.212153 7.331024 72.691643 5.788064 -2.974324 115.731766 -4.983465 -3.313046 114.644592 -3.749641 -4.764032 73.161263 4.547569 0.308552 119.501945 -1.009704 -4.275805 131.195602 -0.754395 -4.507921 74.255638 -2.479490 6.036852 114.390953 -2.113135 -2.936615 115.052773 0.467684 -5.635869 85.499245 -3.709387 12.320506 90.467331 13.872891 -14.835367 127.892288 17.262510 -12.111726 -4.533071 0.457819 6.725023 0.015955 0.203352 8.970284 2.730026 3.738179 -10.638450 -0.008779 -0.044238 -2.407284 -3.499105 0.186344 3.644344 -0.018954 -0.221567 9.781306 -0.590422 0.107776 -6.624303 -0.058775 -0.421391 -5.690505
-0.451521 8.513806 -0.199704 0.000000 -90.000000 -3.000010 -0.005446 -0.001914 -5.155293 -0.005667 0.000728 -3.645116 -0.000890 -0.015816 6.271928 0.001447 -0.027997 14.052392 -10.714467 -4.698634 -0.016208 -42.245640 6.973975 40.982533 7.758898 -85.440598 -8.407410 9.085429 0.009714 -4.771524 -0.000005 -0.000007 -0.000009 -9.519002 15.960410 5.064581 6.302037 40.896473 25.542910 -66.916275 -5.248127 -3.545099 -96.102959 -1.339863 -4.811248 -114.498741 -1.894420 -3.233895 -58.835510 -2.372284 0.341014 -83.068390 -1.182970 -0.316097 -131.202560 -1.705666 0.070933 -62.338524 3.564458 5.550342 -83.006836 1.770799 2.165319 -114.899780 2.969354 5.740292 -67.659126 13.585457 12.018399 -69.766380 6.148374 12.469688 -128.939514 13.887219 9.284066 10.650211 4.858655 -0.017195 41.891914 -6.205725 40.623638 -7.142980 85.082794 -7.789278 -8.739695 -0.228918 -5.637005 -0.000009 0.000003 0.000002 -5.787637 -4.337620 -1.623935 -1.881186 -10.212149 7.331017 72.691643 5.788064 -2.974325 115.731766 -4.983461 -3.313047 114.644577 -3.749642 -4.764037 73.161263 4.547563 0.308549 119.501945 -1.009703 -4.275799 131.195602 -0.754393 -4.507923 74.255638 -2.479494 6.036856 114.390945 -2.113135 -2.936617 115.052773 0.467686 -5.635869 85.499245 -3.709394 12.320509 90.467323 13.872894 -14.835369 127.892288 17.262518 -12.111720 -4.533570 0.456338 6.745006 0.015848 0.202669 8.939907 2.731511 3.743426 -10.627968 -0.008789 -0.044316 -2.415130 -3.499584 0.185431 3.615877 -0.019167 -0.222795 9.836060 -0.588529 0.115396 -6.616828 -0.058854 -0.423976 -5.727960
-0.451515 8.513671 -0.199704 0.000000 -90.000000 -3.000010 -0.005446 -0.001914 -5.155177 -0.005667 0.000728 -3.644992 -0.000919 -0.015814 6.271681 0.001447 -0.027994 14.051932 -10.713897 -4.698778 -0.016212 -42.242935 6.973087 40.983768 7.768762 -85.445854 -8.417112 9.091746 0.003337 -4.772797 -0.000009 -0.000018 -0.000005 -9.519005 15.960412 5.064584 6.302039 40.896481 25.542913 -66.916267 -5.248127 -3.545094 -96.102959 -1.339863 -4.811248 -114.498741 -1.894421 -3.233894 -58.835495 -2.372282 0.341017 -83.068390 -1.182969 -0.316097 -131.202560 -1.705668 0.070936 -62.338501 3.564468 5.550350 -83.006836 1.770801 2.165323 -114.899765 2.969347 5.740296 -67.659134 13.585471 12.018405 -69.766380 6.148373 12.469691 -128.939514 13.887219 9.284070 10.648075 4.859180 -0.017200 41.884789 -6.204555 40.624332 -7.171956 85.100906 -7.818385 -8.749752 -0.236367 -5.636002 0.000005 0.000010 -0.000005 -5.787639 -4.337619 -1.623934 -1.881189 -10.212151 7.331019 72.691643 5.788063 -2.974326 115.731766 -4.983463 -3.313044 114.644592 -3.749638 -4.764033 73.161263 4.547566 0.308555 119.501945 -1.009703 -4.275805 131.195602 -0.754395 -4.507922 74.255646 -2.479488 6.036860 114.390953 -2.113130 -2.936617 115.052773 0.467684 -5.635871 85.499237 -3.709386 12.320516 90.467331 13.872893 -14.835373 127.892288 17.262510 -12.111719 -4.534259 0.454294 6.772903 0.015697 0.201713 8.897412 2.733512 3.750658 -10.613259 -0.008802 -0.044432 -2.426146 -3.500254 0.184173 3.576258 -0.019464 -0.224504 9.912263 -0.585881 0.125777 -6.607485 -0.058954 -0.427463 -5.778470
-0.451506 8.513497 -0.199704 0.000000 -90.000000 -3.000010 -0.005446 -0.001914 -5.155025 -0.005667 0.000728 -3.644821 -0.000956 -0.015812 6.271361 0.001446 -0.027990 14.051332 -10.713049 -4.698988 -0.016211 -42.239613 6.971932 40.985355 7.781001 -85.452492 -8.429561 9.099773 -0.004806 -4.774421 0.000000 -0.000007 -0.000002 -9.518998 15.960405 5.064585 6.302031 40.896481 25.542912 -66.916267 -5.248128 -3.545095 -96.102959 -1.339862 -4.811248 -114.498741 -1.894425 -3.233895 -58.835510 -2.372292 0.341011 -83.068390 -1.182967 -0.316104 -131.202560 -1.705665 0.070935 -62.338516 3.564459 5.550345 -83.006836 1.770801 2.165324 -114.899796 2.969347 5.740294 -67.659134 13.585460 12.018401 -69.766380 6.148373 12.469684 -128.939529 13.887222 9.284068 10.645278 4.859866 -0.017200 41.875694 -6.202992 40.625298 -7.209400 85.124039 -7.855884 -8.762532 -0.245824 -5.634739 0.000002 -0.000003 0.000002 -5.787632 -4.337620 -1.623935 -1.881193 -10.212155 7.331020 72.691643 5.788053 -2.974328 115.731766 -4.983463 -3.313049 114.644562 -3.749640 -4.764032 73.161255 4.547561 0.308548 119.501945 -1.009706 -4.275799 131.195618 -0.754393 -4.507919 74.255646 -2.479499 6.036855 114.390953 -2.113134 -2.936619 115.052773 0.467678 -5.635871 85.499237 -3.709392 12.320509 90.467331 13.872888 -14.835376 127.892288 17.262512 -12.111725 -4.535141 0.451682 6.808180 0.015509 0.200506 8.843749 2.735975 3.759800 -10.594727 -0.008820 -0.044578 -2.439996 -3.501105 0.182558 3.526264 -0.019842 -0.226660 10.008443 -0.582493 0.138749 -6.596363 -0.059066 -0.431755 -5.841084
-0.451497 8.513288 -0.199704 0.000000 -90.000000 -3.000010 -0.005446 -0.001914 -5.154836 -0.005667 0.000728 -3.644655 -0.001001 -0.015810 6.270993 0.001446 -0.027986 14.050630 -10.712084 -4.699226 -0.016207 -42.235531 6.970566 40.987305 7.796155 -85.460533 -8.444724 9.109480 -0.014682 -4.776395 -0.000003 -0.000016 -0.000007 -9.519005 15.960414 5.064587 6.302037 40.896481 25.542912 -66.916275 -5.248131 -3.545099 -96.102959 -1.339862 -4.811243 -114.498741 -1.894427 -3.233895 -58.835510 -2.372292 0.341012 -83.068390 -1.182967 -0.316100 -131.202560 -1.705670 0.070939 -62.338524 3.564456 5.550343 -83.006836 1.770800 2.165324 -114.899780 2.969349 5.740295 -67.659126 13.585464 12.018399 -69.766380 6.148370 12.469695 -128.939514 13.887222 9.284070 10.641936 4.860682 -0.017199 41.864738 -6.201163 40.626415 -7.254784 85.151886 -7.901575 -8.777965 -0.257241 -5.633195 -0.000002 0.000003 0.000000 -5.787639 -4.337623 -1.623934 -1.881188 -10.212151 7.331016 72.691643 5.788061 -2.974328 115.731766 -4.983464 -3.313043 114.644592 -3.749640 -4.764031 73.161255 4.547557 0.308550 119.501945 -1.009703 -4.275806 131.195618 -0.754394 -4.507917 74.255638 -2.479502 6.036857 114.390945 -2.113134 -2.936616 115.052788 0.467686 -5.635869 85.499245 -3.709398 12.320511 90.467331 13.872891 -14.835369 127.892288 17.262514 -12.111722 -4.536205 0.448526 6.851159 0.015281 0.199033 8.778220 2.738871 3.770802 -10.572006 -0.008842 -0.044757 -2.456737 -3.502142 0.180581 3.466334 -0.020301 -0.229244 10.123741 -0.578368 0.154155 -6.583836 -0.059182 -0.436779 -5.914748
